<mxfile host="Electron" agent="Mozilla/5.0 (Macintosh; Intel Mac OS X 10_15_7) AppleWebKit/537.36 (KHTML, like Gecko) draw.io/28.1.2 Chrome/138.0.7204.243 Electron/37.4.0 Safari/537.36" version="28.1.2">
  <diagram name="Page-1" id="W3J2U4z5XXEpKC6a7P9Y">
    <mxGraphModel dx="786" dy="579" grid="1" gridSize="10" guides="1" tooltips="1" connect="1" arrows="1" fold="1" page="1" pageScale="1" pageWidth="827" pageHeight="1169" math="0" shadow="0">
      <root>
        <mxCell id="0" />
        <mxCell id="1" parent="0" />
        <mxCell id="d3Bxr-HGyccvBzt5QRYX-1" value="RKE2 Kubernetes Cluster Air-Gapped" style="whiteSpace=wrap;strokeWidth=2;" vertex="1" parent="1">
          <mxGeometry x="20" y="372" width="1009" height="760" as="geometry" />
        </mxCell>
        <mxCell id="d3Bxr-HGyccvBzt5QRYX-2" value="Worker Node 2" style="whiteSpace=wrap;strokeWidth=2;" vertex="1" parent="1">
          <mxGeometry x="344" y="876" width="629" height="231" as="geometry" />
        </mxCell>
        <mxCell id="d3Bxr-HGyccvBzt5QRYX-3" value="Worker Node 1" style="whiteSpace=wrap;strokeWidth=2;" vertex="1" parent="1">
          <mxGeometry x="350" y="397" width="375" height="406" as="geometry" />
        </mxCell>
        <mxCell id="d3Bxr-HGyccvBzt5QRYX-4" value="External Zone" style="whiteSpace=wrap;strokeWidth=2;" vertex="1" parent="1">
          <mxGeometry x="350" y="20" width="330" height="279" as="geometry" />
        </mxCell>
        <mxCell id="d3Bxr-HGyccvBzt5QRYX-5" value="User or Browser or API Client" style="whiteSpace=wrap;strokeWidth=2;" vertex="1" parent="1">
          <mxGeometry x="385" y="45" width="260" height="78" as="geometry" />
        </mxCell>
        <mxCell id="d3Bxr-HGyccvBzt5QRYX-6" value="F5 or HAProxy Load Balancer" style="whiteSpace=wrap;strokeWidth=2;" vertex="1" parent="1">
          <mxGeometry x="385" y="196" width="260" height="78" as="geometry" />
        </mxCell>
        <mxCell id="d3Bxr-HGyccvBzt5QRYX-7" value="NGINX Ingress Controller Pod" style="whiteSpace=wrap;strokeWidth=2;" vertex="1" parent="1">
          <mxGeometry x="385" y="422" width="260" height="78" as="geometry" />
        </mxCell>
        <mxCell id="d3Bxr-HGyccvBzt5QRYX-8" value="Cilium Agent eBPF datapath" style="whiteSpace=wrap;strokeWidth=2;" vertex="1" parent="1">
          <mxGeometry x="399" y="724" width="260" height="54" as="geometry" />
        </mxCell>
        <mxCell id="d3Bxr-HGyccvBzt5QRYX-9" value="Backend Pod 1 my-app" style="whiteSpace=wrap;strokeWidth=2;" vertex="1" parent="1">
          <mxGeometry x="445" y="1028" width="222" height="54" as="geometry" />
        </mxCell>
        <mxCell id="d3Bxr-HGyccvBzt5QRYX-10" value="Backend Pod 2 my-app" style="whiteSpace=wrap;strokeWidth=2;" vertex="1" parent="1">
          <mxGeometry x="717" y="1028" width="222" height="54" as="geometry" />
        </mxCell>
        <mxCell id="d3Bxr-HGyccvBzt5QRYX-11" value="Cilium Agent eBPF datapath" style="whiteSpace=wrap;strokeWidth=2;" vertex="1" parent="1">
          <mxGeometry x="426" y="901" width="260" height="54" as="geometry" />
        </mxCell>
        <mxCell id="d3Bxr-HGyccvBzt5QRYX-12" value="ClusterIP Service my-app-svc" style="whiteSpace=wrap;strokeWidth=2;" vertex="1" parent="1">
          <mxGeometry x="55" y="573" width="260" height="78" as="geometry" />
        </mxCell>
        <mxCell id="d3Bxr-HGyccvBzt5QRYX-13" value="Hubble Observability UI" style="whiteSpace=wrap;strokeWidth=2;" vertex="1" parent="1">
          <mxGeometry x="765" y="585" width="229" height="54" as="geometry" />
        </mxCell>
        <mxCell id="d3Bxr-HGyccvBzt5QRYX-14" value="HTTPS 443" style="curved=1;startArrow=none;endArrow=block;exitX=0.42;exitY=1;entryX=0.42;entryY=0;rounded=0;" edge="1" parent="1" source="d3Bxr-HGyccvBzt5QRYX-5" target="d3Bxr-HGyccvBzt5QRYX-6">
          <mxGeometry relative="1" as="geometry">
            <Array as="points">
              <mxPoint x="476" y="160" />
            </Array>
          </mxGeometry>
        </mxCell>
        <mxCell id="d3Bxr-HGyccvBzt5QRYX-15" value="VIP or NodePort" style="curved=1;startArrow=none;endArrow=block;exitX=0.39;exitY=1;entryX=0.39;entryY=0;rounded=0;" edge="1" parent="1" source="d3Bxr-HGyccvBzt5QRYX-6" target="d3Bxr-HGyccvBzt5QRYX-7">
          <mxGeometry relative="1" as="geometry">
            <Array as="points">
              <mxPoint x="466" y="299" />
              <mxPoint x="466" y="397" />
            </Array>
          </mxGeometry>
        </mxCell>
        <mxCell id="d3Bxr-HGyccvBzt5QRYX-16" value="Ingress rule" style="curved=1;startArrow=none;endArrow=block;exitX=0.4;exitY=1;entryX=1;entryY=0.05;rounded=0;" edge="1" parent="1" source="d3Bxr-HGyccvBzt5QRYX-7" target="d3Bxr-HGyccvBzt5QRYX-12">
          <mxGeometry relative="1" as="geometry">
            <Array as="points">
              <mxPoint x="464" y="537" />
            </Array>
          </mxGeometry>
        </mxCell>
        <mxCell id="d3Bxr-HGyccvBzt5QRYX-17" value="eBPF Load-Balancing" style="curved=1;startArrow=none;endArrow=block;exitX=1;exitY=0.95;entryX=0.39;entryY=0;rounded=0;" edge="1" parent="1" source="d3Bxr-HGyccvBzt5QRYX-12" target="d3Bxr-HGyccvBzt5QRYX-8">
          <mxGeometry relative="1" as="geometry">
            <Array as="points">
              <mxPoint x="464" y="688" />
            </Array>
          </mxGeometry>
        </mxCell>
        <mxCell id="d3Bxr-HGyccvBzt5QRYX-18" value="Encap or Route" style="curved=1;startArrow=none;endArrow=block;exitX=0.35;exitY=1;entryX=0.29;entryY=0;rounded=0;" edge="1" parent="1" source="d3Bxr-HGyccvBzt5QRYX-8" target="d3Bxr-HGyccvBzt5QRYX-11">
          <mxGeometry relative="1" as="geometry">
            <Array as="points">
              <mxPoint x="452" y="803" />
              <mxPoint x="452" y="876" />
            </Array>
          </mxGeometry>
        </mxCell>
        <mxCell id="d3Bxr-HGyccvBzt5QRYX-19" value="Deliver packet" style="curved=1;startArrow=none;endArrow=block;exitX=0.35;exitY=1;entryX=0.32;entryY=0;rounded=0;" edge="1" parent="1" source="d3Bxr-HGyccvBzt5QRYX-11" target="d3Bxr-HGyccvBzt5QRYX-9">
          <mxGeometry relative="1" as="geometry">
            <Array as="points">
              <mxPoint x="464" y="992" />
            </Array>
          </mxGeometry>
        </mxCell>
        <mxCell id="d3Bxr-HGyccvBzt5QRYX-20" value="HTTP Response" style="curved=1;startArrow=none;endArrow=block;exitX=0.8;exitY=0;entryX=0.76;entryY=1;rounded=0;" edge="1" parent="1" source="d3Bxr-HGyccvBzt5QRYX-9" target="d3Bxr-HGyccvBzt5QRYX-11">
          <mxGeometry relative="1" as="geometry">
            <Array as="points">
              <mxPoint x="713" y="992" />
            </Array>
          </mxGeometry>
        </mxCell>
        <mxCell id="d3Bxr-HGyccvBzt5QRYX-21" value="Return Path" style="curved=1;startArrow=none;endArrow=block;exitX=0.63;exitY=0;entryX=0.68;entryY=1;rounded=0;" edge="1" parent="1" source="d3Bxr-HGyccvBzt5QRYX-11" target="d3Bxr-HGyccvBzt5QRYX-8">
          <mxGeometry relative="1" as="geometry">
            <Array as="points">
              <mxPoint x="620" y="876" />
              <mxPoint x="620" y="803" />
            </Array>
          </mxGeometry>
        </mxCell>
        <mxCell id="d3Bxr-HGyccvBzt5QRYX-22" value="Return" style="curved=1;startArrow=none;endArrow=block;exitX=0.55;exitY=0;entryX=0.59;entryY=1;rounded=0;" edge="1" parent="1" source="d3Bxr-HGyccvBzt5QRYX-8" target="d3Bxr-HGyccvBzt5QRYX-7">
          <mxGeometry relative="1" as="geometry">
            <Array as="points">
              <mxPoint x="560" y="688" />
              <mxPoint x="560" y="537" />
            </Array>
          </mxGeometry>
        </mxCell>
        <mxCell id="d3Bxr-HGyccvBzt5QRYX-23" value="Response" style="curved=1;startArrow=none;endArrow=block;exitX=0.7;exitY=0;entryX=0.7;entryY=1;rounded=0;" edge="1" parent="1" source="d3Bxr-HGyccvBzt5QRYX-7" target="d3Bxr-HGyccvBzt5QRYX-6">
          <mxGeometry relative="1" as="geometry">
            <Array as="points">
              <mxPoint x="601" y="397" />
              <mxPoint x="601" y="299" />
            </Array>
          </mxGeometry>
        </mxCell>
        <mxCell id="d3Bxr-HGyccvBzt5QRYX-24" value="Response" style="curved=1;startArrow=none;endArrow=block;exitX=0.64;exitY=0;entryX=0.64;entryY=1;rounded=0;" edge="1" parent="1" source="d3Bxr-HGyccvBzt5QRYX-6" target="d3Bxr-HGyccvBzt5QRYX-5">
          <mxGeometry relative="1" as="geometry">
            <Array as="points">
              <mxPoint x="584" y="160" />
            </Array>
          </mxGeometry>
        </mxCell>
        <mxCell id="d3Bxr-HGyccvBzt5QRYX-25" value="Monitor flows" style="curved=1;dashed=1;dashPattern=2 3;startArrow=none;endArrow=block;exitX=0.13;exitY=1;entryX=0.69;entryY=0;rounded=0;" edge="1" parent="1" source="d3Bxr-HGyccvBzt5QRYX-13" target="d3Bxr-HGyccvBzt5QRYX-8">
          <mxGeometry relative="1" as="geometry">
            <Array as="points">
              <mxPoint x="643" y="688" />
            </Array>
          </mxGeometry>
        </mxCell>
        <mxCell id="d3Bxr-HGyccvBzt5QRYX-26" value="" style="curved=1;dashed=1;dashPattern=2 3;startArrow=none;endArrow=block;exitX=0.5;exitY=1;entryX=1;entryY=0.11;rounded=0;" edge="1" parent="1" source="d3Bxr-HGyccvBzt5QRYX-13" target="d3Bxr-HGyccvBzt5QRYX-11">
          <mxGeometry relative="1" as="geometry">
            <Array as="points">
              <mxPoint x="879" y="876" />
            </Array>
          </mxGeometry>
        </mxCell>
      </root>
    </mxGraphModel>
  </diagram>
</mxfile>
